<svg width="24" height="24" viewBox="0 0 24 24" fill="none" xmlns="http://www.w3.org/2000/svg">
<circle cx="12" cy="12" r="12" fill="#222222"/>
<circle cx="12" cy="12" r="12" fill="url(#paint0_radial_16260_59346)" fill-opacity="0.15"/>
<g clip-path="url(#clip0_16260_59346)">
<path d="M17.9999 5.98035V11.0893C17.9999 11.9975 17.7125 12.8774 17.1939 13.6012C17.0326 13.8282 16.8504 14.034 16.6471 14.2256L16.6331 14.2327H14.2359V9.49982H12.0139H9.77096H9.57469H7.35974L7.38778 9.47144L9.26628 7.70461L9.96021 7.0589C10.7453 6.32094 11.7125 5.98035 12.778 5.98035H17.9999Z" fill="url(#paint1_linear_16260_59346)"/>
<path d="M16.6333 14.2398L16.6263 14.2469L16.6193 14.254L16.4931 14.3747L16.0165 14.8288L14.2852 16.4537L14.1169 16.6098C13.3319 17.3407 12.3015 17.738 11.2431 17.738H6.00012V15.4532L6.00713 14.2327L6.02115 12.6078C6.02816 11.4228 6.5118 10.3017 7.36694 9.4928H9.5819H9.58891V14.2327H16.6333V14.2398Z" fill="url(#paint2_linear_16260_59346)"/>
</g>
<defs>
<radialGradient id="paint0_radial_16260_59346" cx="0" cy="0" r="1" gradientUnits="userSpaceOnUse" gradientTransform="translate(0.999999) rotate(48.8141) scale(31.8904)">
<stop stop-color="white"/>
<stop offset="1" stop-color="white" stop-opacity="0"/>
</radialGradient>
<linearGradient id="paint1_linear_16260_59346" x1="12.9315" y1="5.47634" x2="12.2436" y2="18.4428" gradientUnits="userSpaceOnUse">
<stop stop-color="#48EF8A"/>
<stop offset="0.5458" stop-color="#43B4A6"/>
<stop offset="0.6918" stop-color="#2D796F"/>
<stop offset="0.9662"/>
</linearGradient>
<linearGradient id="paint2_linear_16260_59346" x1="11.6332" y1="18.3813" x2="9.82728" y2="5.0946" gradientUnits="userSpaceOnUse">
<stop stop-color="#FF5F96"/>
<stop offset="0.6103" stop-color="#FF33AF"/>
<stop offset="1"/>
</linearGradient>
<clipPath id="clip0_16260_59346">
<rect width="12" height="11.7647" fill="white" transform="translate(6 5.98035)"/>
</clipPath>
</defs>
</svg>
